<svg width="19" height="19" viewBox="0 0 19 19" fill="none" xmlns="http://www.w3.org/2000/svg">
<path d="M9.53686 15.8974C7.70167 15.8974 5.86648 15.8974 4.0313 15.8974C3.53747 15.8974 3.05031 15.8634 2.81674 15.3268C2.58317 14.7766 2.83008 14.3418 3.25051 14.0294C4.01128 13.4588 4.24485 12.7319 4.17811 11.7742C4.09803 10.5718 4.11805 9.34912 4.17144 8.14C4.25819 6.21764 4.99227 4.61453 6.60723 3.5073C6.94758 3.26955 7.32129 3.07936 7.72169 2.98426C8.08873 2.89595 8.18216 2.69896 8.16881 2.33894C8.14879 1.55777 8.58256 1.01434 9.28994 0.885277C10.0774 0.735835 10.8515 1.36757 10.8782 2.1827C10.8849 2.29818 10.8916 2.40687 10.8782 2.52235C10.8515 2.7533 10.9516 2.86199 11.1718 2.92991C13.1872 3.59561 14.295 5.06286 14.7488 7.11429C14.8689 7.66451 14.8823 8.21472 14.8823 8.76494C14.8823 10.0895 14.8889 11.4141 14.8756 12.7387C14.8756 12.9833 14.9356 13.1735 15.1158 13.3365C15.3961 13.5946 15.6497 13.8799 15.9166 14.1516C16.237 14.4709 16.3905 14.8377 16.2169 15.286C16.0368 15.748 15.6564 15.8974 15.1959 15.8974C14.0815 15.8974 12.9737 15.8974 11.8592 15.8974C11.0984 15.8974 10.3176 15.8974 9.53686 15.8974Z" fill="black"/>
<path d="M1.66036 8.16741C1.0731 8.17421 0.625986 7.69192 0.719414 7.10773C1.05976 4.92045 2.04075 3.0728 3.64904 1.57838C4.04277 1.21157 4.62336 1.25233 4.9637 1.63273C5.30405 2.01312 5.2907 2.54976 4.89029 2.93695C3.91598 3.90153 3.18857 5.01555 2.80152 6.35373C2.69474 6.71375 2.63468 7.08056 2.54125 7.44058C2.42781 7.88891 2.09414 8.16062 1.66036 8.16741Z" fill="black"/>
<path d="M14.8154 1.32647C15.0623 1.31968 15.2692 1.42837 15.4427 1.59139C17.0109 3.07902 17.9652 4.89949 18.3189 7.04602C18.4057 7.56907 18.0853 8.04457 17.5982 8.13966C17.0777 8.24156 16.6105 7.94267 16.5104 7.39246C16.1968 5.62632 15.4093 4.13191 14.1414 2.89561C13.8477 2.61031 13.7743 2.25709 13.9345 1.8699C14.0813 1.53026 14.4216 1.31968 14.8154 1.32647Z" fill="black"/>
<path d="M9.52755 16.6995C10.0147 16.6995 10.5019 16.7063 10.989 16.6995C11.2827 16.6927 11.3494 16.8082 11.296 17.0935C11.1358 17.9562 10.3617 18.6219 9.50085 18.6083C8.61996 18.5947 7.87254 17.9426 7.71905 17.0731C7.67234 16.8014 7.75909 16.6995 8.02603 16.6995C8.53321 16.6995 9.03372 16.6995 9.52755 16.6995Z" fill="black"/>
</svg>
