<svg width="17" height="19" viewBox="0 0 17 19" fill="none" xmlns="http://www.w3.org/2000/svg">
<path d="M4.23517 0.0986419C4.10682 0.167096 4.01698 0.256942 3.94852 0.385294C3.8544 0.556429 3.85012 0.616326 3.85012 1.34365V2.12232L3.46934 2.17366C2.42542 2.31484 1.48845 2.81114 0.915148 3.52563C0.474474 4.07326 0.192101 4.77919 0.0637495 5.61776C0.00813047 6.01565 0.00813047 6.09266 0.0594711 6.22101C0.187823 6.52905 -0.560894 6.50338 8.22263 6.50338H16.1291L16.266 6.37931C16.4029 6.25951 16.4072 6.2424 16.3986 5.96431C16.3815 5.40384 16.189 4.69363 15.9023 4.1246C15.3718 3.0764 14.2851 2.35335 12.9588 2.17366L12.578 2.12232V1.34365C12.578 0.616326 12.5737 0.556429 12.4796 0.385294C12.3684 0.171375 12.0946 0.000239372 11.8764 0.000239372C11.6967 0.000239372 11.3844 0.162818 11.2774 0.312561C11.1961 0.423799 11.1875 0.505088 11.1747 1.24525L11.1619 2.05386H8.21407H5.26626L5.25343 1.24953C5.24059 0.483696 5.23632 0.445191 5.13791 0.304005C5.0224 0.141426 4.75286 0.00451756 4.55177 0.000239372C4.47904 0.000239372 4.33786 0.0430231 4.23517 0.0986419Z" fill="#F91942"/>
<path d="M0.727325 7.8689C0.427838 7.93308 0.209641 8.09993 0.0684541 8.37375C0.00855677 8.49782 0 8.85721 0 11.8221C0 15.4844 0.00427838 15.5486 0.273817 16.3529C0.791501 17.8889 1.99373 18.7659 3.82488 18.9499C4.46663 19.0141 11.9624 19.0141 12.6041 18.9499C14.3583 18.7745 15.5434 17.9531 16.091 16.5412C16.1637 16.3529 16.2621 16.0363 16.3135 15.8353C16.399 15.4801 16.4033 15.3561 16.4162 11.9933C16.429 8.82298 16.4247 8.50638 16.3605 8.37803C16.2621 8.18122 16.1338 8.04859 15.937 7.94591L15.7658 7.85179L8.32146 7.84751C4.22704 7.84323 0.808615 7.85179 0.727325 7.8689ZM5.33942 10.8509C5.66458 10.9836 5.89989 11.3258 5.90417 11.6595C5.90417 11.7537 5.85711 11.9291 5.80149 12.0489C5.65175 12.374 5.37365 12.5452 4.99715 12.5409C4.52225 12.5409 4.15003 12.1558 4.15003 11.6767C4.15003 11.0392 4.76612 10.6113 5.33942 10.8509ZM8.58244 10.8638C8.86481 10.9921 9.11296 11.3686 9.11296 11.6638C9.11296 11.9633 8.89048 12.3056 8.59527 12.4553C8.0947 12.7078 7.43155 12.3655 7.33743 11.8007C7.25186 11.2916 7.68826 10.7825 8.2145 10.7825C8.32146 10.7825 8.48404 10.821 8.58244 10.8638ZM11.7099 10.8338C12.3046 11.0948 12.4715 11.805 12.0479 12.2714C11.5217 12.8532 10.5248 12.4425 10.5248 11.651C10.5248 11.082 11.2008 10.6156 11.7099 10.8338ZM5.51912 14.1367C5.72876 14.2736 5.90417 14.6074 5.90417 14.8683C5.89989 15.3261 5.47633 15.7454 5.01854 15.7454C4.76184 15.7454 4.43241 15.5657 4.2955 15.3604C4.06447 15.0095 4.11581 14.4961 4.41529 14.218C4.69339 13.957 5.19396 13.9185 5.51912 14.1367ZM8.62522 14.0982C9.13007 14.3464 9.25414 14.9796 8.8862 15.4245C8.43697 15.9722 7.55135 15.7754 7.35882 15.0823C7.20908 14.5432 7.64119 13.9913 8.2145 13.9913C8.33857 13.9913 8.48831 14.0298 8.62522 14.0982ZM11.757 14.0554C12.1164 14.2095 12.2961 14.509 12.2704 14.9154C12.249 15.2705 12.0993 15.5015 11.7955 15.6427C11.5388 15.7625 11.3163 15.7711 11.0896 15.677C10.5334 15.4459 10.358 14.7956 10.7216 14.3079C10.9313 14.0255 11.4062 13.91 11.757 14.0554Z" fill="#F91942"/>
</svg>
