<svg width="25" height="25" viewBox="0 0 25 25" fill="none" xmlns="http://www.w3.org/2000/svg">
<path d="M10.226 0.909301C7.48361 1.09701 5.75301 1.68762 4.61759 2.82304C3.51879 3.92641 2.85036 5.58834 2.10409 9.09991C1.19759 13.3486 1.00987 14.603 0.96867 16.5946C0.9412 17.9773 0.982405 18.5679 1.16554 19.4011C1.75614 22.052 3.44096 23.4163 6.82434 23.9749C8.44048 24.2404 9.9788 24.3182 13.321 24.2862C16.3884 24.2587 17.4552 24.1855 18.9111 23.9108C22.354 23.2606 24.0022 21.5941 24.3456 18.4305C24.4692 17.3088 24.3868 15.3768 24.1395 13.7011C23.9518 12.41 23.1506 8.51846 22.7889 7.13123C21.5986 2.57123 19.9366 1.24352 15.0104 0.904723C14.2321 0.849783 11.0227 0.854361 10.226 0.909301ZM8.0559 5.8081C8.46337 5.93172 8.73349 6.31172 8.73807 6.76497C8.74265 7.41509 8.95783 8.2987 9.23253 8.77943C9.75446 9.69051 10.606 10.2948 11.7323 10.5512C12.1718 10.652 13.179 10.652 13.6186 10.5512C14.7448 10.2948 15.5964 9.69051 16.1183 8.77943C16.393 8.2987 16.6082 7.41509 16.6128 6.76497C16.6174 6.30256 16.8966 5.92256 17.3224 5.80352C17.6978 5.69822 18.0366 5.83099 18.3251 6.18352C18.4624 6.35292 18.467 6.38497 18.4807 6.83822C18.5219 8.01027 18.1007 9.33798 17.3865 10.2903C16.5304 11.4303 15.1798 12.2269 13.7101 12.465C11.4713 12.8267 9.23253 11.9751 7.96434 10.2903C7.27301 9.37003 6.86096 8.11099 6.86096 6.93437C6.86096 6.42617 6.91132 6.27051 7.15398 6.03702C7.41036 5.78979 7.72169 5.71196 8.0559 5.8081Z" fill="black"/>
</svg>
