<svg width="36" height="35" viewBox="0 0 36 35" fill="none" xmlns="http://www.w3.org/2000/svg">
<path d="M27.1726 1.06778C26.9463 1.15364 22.2319 5.75872 20.7333 7.34319C20.1323 7.99102 19.5157 8.68568 19.3752 8.90423C18.7742 9.81744 18.6025 11.1287 18.8835 12.6429C19.0396 13.4547 19.0474 13.603 18.9615 14.001C18.9069 14.243 18.8601 14.4694 18.8522 14.4928C18.8522 14.5396 21.7402 17.17 22.3724 17.7085C22.5597 17.8646 22.6846 17.9115 22.8017 17.8802C23.0671 17.7944 23.6837 17.8256 24.3315 17.9583C25.1042 18.1222 26.1657 18.1144 26.798 17.9505C27.9766 17.6461 28.4136 17.2792 32.5972 13.0722C35.1652 10.4809 35.6725 9.94233 35.7896 9.63012C36.2579 8.38128 35.173 7.19489 33.8773 7.53832C33.5651 7.61637 33.2529 7.89736 31.0206 10.1218C28.6244 12.5102 28.5073 12.6117 28.2263 12.6117C28 12.6117 27.8751 12.5571 27.6956 12.3776C27.4926 12.1668 27.4614 12.0966 27.5004 11.8468C27.5473 11.597 27.8673 11.2458 29.9669 9.13839C31.2938 7.8115 32.4411 6.60169 32.5114 6.45339C32.7143 6.05532 32.6441 5.30602 32.3709 4.89234C31.965 4.28354 31.0284 4.04157 30.365 4.36939C30.2167 4.44745 28.999 5.60262 27.6565 6.93731C25.3852 9.20083 25.1979 9.36474 24.9481 9.36474C24.4252 9.36474 24.0661 8.79496 24.3081 8.34225C24.3705 8.22518 25.4789 7.07 26.7745 5.78214C28.0702 4.49428 29.1786 3.3313 29.241 3.19081C29.3034 3.05031 29.3503 2.7381 29.3503 2.49614C29.3503 1.59854 28.7181 0.974119 27.8204 0.989731C27.5707 0.989731 27.2741 1.02876 27.1726 1.06778Z" fill="black"/>
<path d="M5.42755 1.4971C4.18652 1.70004 3.28111 2.15274 2.46157 2.97229C1.77471 3.65134 1.37664 4.3382 1.12687 5.27483C0.931741 6.00072 0.923936 7.74128 1.11907 8.59205C2.04789 12.6039 5.75537 16.1709 9.72043 16.8656C10.1341 16.9358 10.8444 16.9827 11.4766 16.9827C12.6786 16.9749 13.1157 17.0685 13.7089 17.4744C13.9274 17.6149 15.0826 18.8247 16.4173 20.2999C20.9521 25.303 25.9553 30.6808 27.9847 32.718C29.3974 34.1464 29.6159 34.2634 30.8336 34.2712C31.5048 34.2712 31.6219 34.2478 32.098 34.0215C32.7536 33.7171 33.2064 33.2644 33.5108 32.6087C33.7371 32.1326 33.7605 32.0155 33.7605 31.3443C33.7527 30.1189 33.6356 29.9081 32.1683 28.4563C30.2091 26.5128 23.5747 20.3467 18.8916 16.1163C17.9706 15.2811 17.0964 14.4304 16.9637 14.2196C16.5578 13.6264 16.4641 13.1893 16.4719 11.9873C16.4798 10.356 16.2066 9.115 15.5353 7.71786C14.6065 5.80558 12.8113 3.8777 10.9068 2.76155C9.51749 1.9498 8.12035 1.53613 6.63736 1.4893C6.0988 1.47369 5.56024 1.48149 5.42755 1.4971Z" fill="black"/>
<path d="M12.0156 20.8932C6.62999 25.5919 3.67181 28.433 2.88348 29.6506C1.76733 31.3756 2.22004 33.4284 3.89816 34.2557C4.38208 34.4899 4.46013 34.5055 5.27188 34.5055C6.12265 34.5055 6.15387 34.4977 6.76268 34.2011C7.32465 33.9279 7.51978 33.764 9.05741 32.2108C10.9151 30.3531 13.0693 28.0037 17.2685 23.2582C17.409 23.1021 17.3856 23.0786 15.7231 21.2288C14.7943 20.2063 14.0059 19.3321 13.9747 19.3009C13.9435 19.2619 13.0615 19.98 12.0156 20.8932Z" fill="black"/>
</svg>
