<svg width="23" height="23" viewBox="0 0 23 23" fill="none" xmlns="http://www.w3.org/2000/svg">
<path d="M10.2061 0.5C10.8098 0.5 11.4135 0.5 12.0171 0.5C12.3712 0.551742 12.7302 0.583542 13.0794 0.657922C17.4366 1.58012 20.3013 4.16778 21.6859 8.39609C21.9188 9.10809 22.0174 9.84919 22.1069 10.5903C22.1069 11.194 22.1069 11.7976 22.1069 12.4013C22.0772 12.6357 22.0535 12.8718 22.0169 13.1052C21.653 15.446 20.6732 17.4909 19.0298 19.1984C17.0469 21.2595 14.6145 22.3945 11.7616 22.581C9.93017 22.7007 8.17686 22.3477 6.50171 21.5855C2.06696 19.567 -0.645201 14.7469 0.132551 9.94836C0.877424 5.35246 3.59713 2.36757 8.01086 0.919328C8.72231 0.68541 9.46449 0.589471 10.2061 0.5ZM8.3612 12.1587C7.72897 12.1587 7.09728 12.1598 6.46506 12.1577C6.33786 12.1571 6.26617 12.1792 6.27641 12.3377C6.35564 13.5655 6.62675 14.7491 7.07087 15.8955C7.12531 16.0362 7.20238 16.0955 7.35707 16.0949C8.30514 16.0895 9.25321 16.0885 10.2013 16.0955C10.3894 16.0965 10.4519 16.0324 10.4508 15.8454C10.4449 14.7033 10.4444 13.5612 10.4514 12.4196C10.4524 12.2245 10.3937 12.1523 10.1927 12.1555C9.58253 12.1652 8.97186 12.1587 8.3612 12.1587ZM13.8912 12.1571C13.2735 12.1571 12.6558 12.1625 12.0381 12.1539C11.8457 12.1512 11.7703 12.2067 11.7713 12.4099C11.7789 13.552 11.7789 14.6941 11.7713 15.8362C11.7703 16.0362 11.8387 16.0971 12.0344 16.0955C12.9679 16.0879 13.9019 16.0874 14.8355 16.096C15.0182 16.0976 15.1039 16.0302 15.1658 15.8648C15.589 14.7426 15.8638 13.5897 15.9404 12.39C15.9522 12.204 15.9026 12.1517 15.7221 12.1544C15.1125 12.1625 14.5018 12.1571 13.8912 12.1571ZM13.8545 10.8318C14.4571 10.8318 15.0602 10.8318 15.6628 10.8318C15.9393 10.8318 15.9458 10.8307 15.9264 10.5655C15.8385 9.38405 15.5642 8.24518 15.1351 7.14188C15.0834 7.00821 14.9928 6.98342 14.8662 6.98342C13.9186 6.98612 12.9717 6.98827 12.0241 6.9818C11.8392 6.98073 11.7708 7.03947 11.7719 7.2292C11.7783 8.34866 11.7783 9.46813 11.7719 10.5876C11.7708 10.7779 11.8392 10.8371 12.0241 10.835C12.6342 10.8264 13.2444 10.8318 13.8545 10.8318ZM8.35042 10.8318C8.97564 10.8318 9.60085 10.8301 10.2261 10.8328C10.3592 10.8334 10.4492 10.8059 10.4487 10.6453C10.4465 9.48861 10.4465 8.33142 10.4487 7.17476C10.4487 7.0357 10.3862 6.98396 10.2519 6.98396C9.27477 6.98612 8.2976 6.98612 7.31988 6.98396C7.20292 6.98342 7.13501 7.0287 7.09243 7.13811C6.65639 8.25596 6.38044 9.40992 6.29043 10.6086C6.27587 10.8005 6.34594 10.8377 6.51842 10.8355C7.12908 10.8269 7.73975 10.8318 8.35042 10.8318ZM3.15732 12.1587C2.64044 12.1587 2.12301 12.1625 1.60613 12.1566C1.44066 12.155 1.36898 12.2067 1.3873 12.3829C1.51396 13.6091 1.83358 14.7782 2.39304 15.8799C2.47173 16.0351 2.5666 16.0971 2.74338 16.0955C3.63378 16.0874 4.52418 16.0917 5.41458 16.0917C5.70024 16.0917 5.70455 16.0895 5.61292 15.819C5.23294 14.6979 5.00603 13.5472 4.93488 12.3662C4.92518 12.2067 4.86104 12.155 4.70905 12.1566C4.19163 12.162 3.6742 12.1587 3.15732 12.1587ZM3.14169 10.8318C3.65911 10.8318 4.176 10.828 4.69342 10.8339C4.85026 10.8355 4.92518 10.7924 4.93812 10.6189C5.02274 9.45358 5.24103 8.31417 5.62856 7.21087C5.69808 7.01253 5.63448 6.97911 5.45123 6.98073C4.53873 6.98665 3.62677 6.98773 2.71428 6.98019C2.53911 6.97857 2.44209 7.0357 2.36394 7.19416C1.82765 8.27428 1.51181 9.41531 1.38892 10.6129C1.37275 10.773 1.42934 10.8355 1.5905 10.8339C2.10738 10.8285 2.62427 10.8312 3.14169 10.8318ZM18.0995 16.0922C18.5453 16.0922 18.9905 16.0874 19.4362 16.0949C19.5855 16.0971 19.6712 16.0448 19.7391 15.9106C20.3018 14.7933 20.6247 13.6091 20.7502 12.3679C20.7653 12.2213 20.7109 12.1566 20.5589 12.1566C19.5386 12.1593 18.5178 12.1593 17.4975 12.1566C17.3503 12.156 17.2959 12.2169 17.2884 12.3619C17.276 12.6196 17.256 12.8783 17.2226 13.1343C17.1008 14.0694 16.9003 14.9873 16.5893 15.8788C16.5332 16.0399 16.5597 16.0992 16.7408 16.096C17.194 16.0863 17.6468 16.0922 18.0995 16.0922ZM19.0153 10.8318C19.5251 10.8318 20.0356 10.8285 20.5454 10.8334C20.7055 10.835 20.7664 10.7741 20.7497 10.614C20.6252 9.41693 20.3137 8.27375 19.7763 7.19362C19.7035 7.04756 19.6184 6.97965 19.447 6.98073C18.549 6.98827 17.6506 6.98827 16.7526 6.98073C16.5602 6.97911 16.5338 7.03732 16.5931 7.20764C16.9768 8.31255 17.201 9.45088 17.2851 10.6162C17.2975 10.7876 17.3687 10.835 17.5277 10.8334C18.0235 10.828 18.5194 10.8318 19.0153 10.8318ZM8.83119 2.11425C7.00673 2.39668 3.80949 4.49009 3.39555 5.65752C4.2617 5.65752 5.12299 5.65106 5.98374 5.66237C6.19395 5.66507 6.30713 5.59338 6.40092 5.40905C6.87414 4.47554 7.46541 3.62017 8.158 2.83595C8.36659 2.60095 8.58649 2.37674 8.83119 2.11425ZM8.81771 20.9797C8.78591 20.9161 8.78268 20.9005 8.77352 20.8913C7.78934 19.9195 6.98194 18.8179 6.3551 17.5852C6.28504 17.4472 6.18317 17.416 6.04088 17.417C5.22216 17.4214 4.40345 17.4187 3.58473 17.4203C3.53137 17.4203 3.46885 17.3971 3.40849 17.4742C4.80499 19.2437 6.59172 20.4073 8.81771 20.9797ZM13.4098 2.11371C13.4373 2.1633 13.4416 2.17785 13.4513 2.18755C14.4382 3.15826 15.2429 4.2621 15.8708 5.49475C15.9355 5.62195 16.0288 5.66022 16.1657 5.65968C16.9704 5.65537 17.7751 5.6586 18.5792 5.65591C18.6385 5.65591 18.7242 5.69256 18.7517 5.61548C18.7711 5.56158 18.7037 5.51685 18.6687 5.47265C17.6522 4.19149 16.3834 3.23803 14.8856 2.59179C14.4194 2.39075 13.9413 2.21774 13.4098 2.11371ZM13.4266 20.97C15.5647 20.4089 17.2981 19.2733 18.6644 17.5707C18.6908 17.5378 18.7361 17.5033 18.7172 17.4602C18.6876 17.3928 18.6164 17.4192 18.5631 17.4192C17.7869 17.4176 17.0113 17.4246 16.2357 17.4133C16.0277 17.41 15.9145 17.4785 15.8191 17.665C15.2235 18.8319 14.4598 19.878 13.5338 20.8056C13.4939 20.845 13.4389 20.8741 13.4266 20.97ZM10.4481 4.08747C10.4481 3.62825 10.4492 3.16904 10.4471 2.70929C10.4471 2.65647 10.4762 2.58155 10.4061 2.5573C10.3554 2.53951 10.3177 2.5961 10.2811 2.62844C9.33783 3.45201 8.54822 4.40277 7.90522 5.47696C7.8179 5.62303 7.85886 5.65968 8.01517 5.65914C8.74711 5.65537 9.47958 5.65375 10.2115 5.66022C10.3878 5.66184 10.4546 5.60147 10.4514 5.42253C10.4422 4.97787 10.4481 4.53267 10.4481 4.08747ZM11.7751 4.07884C11.7751 4.53105 11.7783 4.98326 11.7735 5.43546C11.7719 5.58584 11.8182 5.66022 11.9821 5.65914C12.7286 5.65483 13.4751 5.65537 14.2216 5.6586C14.3719 5.65914 14.4016 5.61548 14.3234 5.48451C13.6783 4.40277 12.8822 3.44823 11.933 2.6209C11.8975 2.58964 11.8613 2.53358 11.8069 2.56269C11.7546 2.59017 11.7767 2.65324 11.7767 2.7012C11.7746 3.16042 11.7751 3.61963 11.7751 4.07884ZM10.4481 18.9995C10.4481 18.5473 10.4449 18.0951 10.4498 17.6429C10.4514 17.4936 10.4083 17.4165 10.2428 17.4176C9.49629 17.4219 8.7498 17.4214 8.00331 17.4181C7.85671 17.4176 7.81952 17.4569 7.89929 17.5911C8.54499 18.6718 9.33891 19.629 10.2891 20.4558C10.3252 20.4871 10.3608 20.5426 10.4153 20.5157C10.4692 20.4887 10.4465 20.4256 10.4465 20.3782C10.4487 19.9179 10.4481 19.4587 10.4481 18.9995ZM11.7751 19.0097C11.7751 19.4619 11.774 19.9142 11.7762 20.3658C11.7762 20.4192 11.7471 20.4936 11.8161 20.5189C11.8662 20.5372 11.9045 20.4806 11.9411 20.4483C12.8827 19.6236 13.6718 18.6723 14.3137 17.5976C14.401 17.4515 14.3655 17.4149 14.2075 17.416C13.4756 17.4197 12.7437 17.4214 12.0117 17.4149C11.8355 17.4133 11.7686 17.4742 11.7719 17.6526C11.781 18.1053 11.7751 18.5575 11.7751 19.0097Z" fill="black"/>
</svg>
