<svg width="27" height="23" viewBox="0 0 27 23" fill="none" xmlns="http://www.w3.org/2000/svg">
<path d="M10.3893 0.2785C9.86755 0.425405 9.38124 0.845854 9.13809 1.36762C9.00132 1.65636 9.00132 1.66143 8.98612 3.03422L8.97092 4.41715H5.99738C2.75536 4.41715 2.70977 4.42221 2.16774 4.71095C1.79288 4.90851 1.27618 5.44547 1.08369 5.8254C0.840536 6.32183 0.810142 6.57005 0.835471 7.88206C0.850668 8.89519 0.87093 9.10288 0.967178 9.42202C1.32684 10.6327 2.22346 11.6458 3.3531 12.122C3.77355 12.2993 12.4713 14.8372 12.9779 14.9335C13.4591 15.0196 14.1126 15.0196 14.5989 14.9335C15.1054 14.8423 23.788 12.3094 24.2186 12.1271C25.3482 11.6509 26.255 10.6276 26.6096 9.42202C26.7058 9.10288 26.721 8.89013 26.7413 7.88206C26.7717 6.57512 26.7413 6.3269 26.4931 5.8254C26.3006 5.44547 25.7839 4.90851 25.409 4.71095C24.867 4.42221 24.8214 4.41715 21.5844 4.41715H18.6058L18.5906 3.03422C18.5754 1.66143 18.5754 1.65636 18.4386 1.36762C18.2512 0.962364 17.8966 0.597636 17.4914 0.400076L17.157 0.237975L13.8897 0.227843C11.4075 0.217712 10.5666 0.232909 10.3893 0.2785ZM16.8024 2.01096L16.9291 2.13253V3.27737V4.41715H13.7884H10.6477V3.27737V2.13253L10.7743 2.01096L10.8959 1.88431H13.7884H16.6809L16.8024 2.01096Z" fill="black"/>
<path d="M0.820318 16.4318C0.820318 20.9859 0.815252 20.9048 1.11413 21.457C1.31169 21.8268 1.80306 22.308 2.17285 22.4954C2.83645 22.8247 2.00062 22.8044 13.7884 22.8044C25.5154 22.8044 24.7353 22.8247 25.3786 22.5106C25.7282 22.3434 26.2702 21.8166 26.4627 21.457C26.7616 20.8997 26.7565 20.9859 26.7565 16.4318V12.2577L26.4424 12.5515C26.0422 12.9213 25.3229 13.3874 24.8569 13.5799C24.6644 13.6609 24.1629 13.8331 23.7424 13.9598C21.9644 14.4917 16.2858 16.138 15.5817 16.3254C14.1886 16.6902 13.3882 16.6902 11.9901 16.3204C10.5717 15.9506 3.23157 13.7825 2.80099 13.6102C2.24883 13.3874 1.61563 12.9821 1.17491 12.5819L0.820318 12.2577V16.4318Z" fill="black"/>
</svg>
