<svg width="23" height="31" viewBox="0 0 23 31" fill="none" xmlns="http://www.w3.org/2000/svg">
<path d="M11.3821 30.3323C9.40178 30.372 7.38187 30.2729 5.40155 29.8373C4.53022 29.6392 3.69849 29.362 2.92616 28.9461C0.629004 27.7183 -0.0641057 25.3618 1.2231 23.1042C2.01522 21.718 3.20341 20.7476 4.58963 20.0149C6.58974 18.9456 8.72848 18.4505 10.986 18.3911C13.2832 18.3317 15.5209 18.6881 17.6201 19.6387C19.3231 20.411 20.8282 21.4606 21.7589 23.1438C22.5114 24.53 22.6897 25.9559 21.8579 27.3817C21.3035 28.3718 20.3529 28.9065 19.3429 29.3026C18.0953 29.7977 16.7883 30.0155 15.4615 30.1739C14.1347 30.3125 12.7683 30.3521 11.3821 30.3323Z" fill="url(#paint0_linear_6374_37669)"/>
<path d="M11.5025 0.6875C15.5225 0.6875 18.7702 3.93521 18.7702 7.93544C18.7702 11.9357 15.5027 15.2428 11.5223 15.223C7.24483 15.1834 4.19515 11.7376 4.23476 7.89583C4.25456 3.91541 7.50227 0.6875 11.5025 0.6875Z" fill="url(#paint1_linear_6374_37669)"/>
<defs>
<linearGradient id="paint0_linear_6374_37669" x1="11.4945" y1="18.3848" x2="11.4945" y2="30.3403" gradientUnits="userSpaceOnUse">
<stop stop-color="#FF295D"/>
<stop offset="0.485577" stop-color="#E31B95"/>
<stop offset="1" stop-color="#C817AE"/>
</linearGradient>
<linearGradient id="paint1_linear_6374_37669" x1="11.5023" y1="0.6875" x2="11.5023" y2="15.2231" gradientUnits="userSpaceOnUse">
<stop stop-color="#FF295D"/>
<stop offset="0.485577" stop-color="#E31B95"/>
<stop offset="1" stop-color="#C817AE"/>
</linearGradient>
</defs>
</svg>
