<svg width="106" height="33" viewBox="0 0 106 33" fill="none" xmlns="http://www.w3.org/2000/svg">
<g clip-path="url(#clip0_6408_1837)">
<g clip-path="url(#clip1_6408_1837)">
<g clip-path="url(#clip2_6408_1837)">
<path d="M13.9122 5.70918C13.8979 5.66575 13.8718 5.62719 13.8367 5.5979C13.8016 5.5686 13.759 5.54975 13.7137 5.54348L9.30516 4.89851L7.33258 0.901742C7.31256 0.860907 7.2815 0.826504 7.24291 0.802442C7.20432 0.778381 7.15976 0.765625 7.11428 0.765625C7.06881 0.765625 7.02424 0.778381 6.98565 0.802442C6.94706 0.826504 6.916 0.860907 6.89599 0.901742L4.9234 4.89851L0.51286 5.53951C0.467937 5.54619 0.425769 5.56527 0.391099 5.59461C0.356429 5.62395 0.330633 5.66238 0.316611 5.70558C0.30259 5.74878 0.300899 5.79504 0.311728 5.83915C0.322558 5.88325 0.34548 5.92346 0.377914 5.95526L3.56898 9.06595L2.81487 13.4586C2.80752 13.5036 2.81292 13.5498 2.83045 13.5919C2.84799 13.634 2.87697 13.6703 2.9141 13.6968C2.95082 13.7238 2.99441 13.7399 3.03988 13.7432C3.08534 13.7466 3.13082 13.737 3.17109 13.7156L7.11627 11.6418L11.0614 13.7156C11.1017 13.7368 11.1471 13.7463 11.1925 13.743C11.2379 13.7398 11.2815 13.7239 11.3184 13.6971C11.3552 13.6704 11.3839 13.6339 11.4011 13.5918C11.4182 13.5496 11.4233 13.5035 11.4157 13.4586L10.6626 9.06595L13.8546 5.95427C13.8856 5.9225 13.9073 5.8829 13.9174 5.83972C13.9276 5.79653 13.9257 5.75141 13.9122 5.70918Z" fill="#FFBB00"/>
<path d="M44.5997 5.70918C44.5854 5.66575 44.5593 5.62719 44.5242 5.5979C44.4891 5.5686 44.4465 5.54975 44.4012 5.54348L39.9927 4.89851L38.0201 0.901742C38.0001 0.860907 37.969 0.826504 37.9304 0.802442C37.8918 0.778381 37.8473 0.765625 37.8018 0.765625C37.7563 0.765625 37.7117 0.778381 37.6732 0.802442C37.6346 0.826504 37.6035 0.860907 37.5835 0.901742L35.6109 4.89851L31.2004 5.53951C31.1554 5.54619 31.1133 5.56527 31.0786 5.59461C31.0439 5.62395 31.0181 5.66238 31.0041 5.70558C30.9901 5.74878 30.9884 5.79504 30.9992 5.83915C31.0101 5.88325 31.033 5.92346 31.0654 5.95526L34.2565 9.06595L33.5024 13.4586C33.495 13.5036 33.5004 13.5498 33.518 13.5919C33.5355 13.634 33.5645 13.6703 33.6016 13.6968C33.6383 13.7238 33.6819 13.7399 33.7274 13.7432C33.7728 13.7466 33.8183 13.737 33.8586 13.7156L37.8038 11.6418L41.7489 13.7156C41.7892 13.7368 41.8346 13.7463 41.88 13.743C41.9254 13.7398 41.969 13.7239 42.0059 13.6971C42.0427 13.6704 42.0714 13.6339 42.0886 13.5918C42.1057 13.5496 42.1108 13.5035 42.1032 13.4586L41.3501 9.06595L44.5421 5.95427C44.5731 5.9225 44.5948 5.8829 44.6049 5.83972C44.6151 5.79653 44.6132 5.75141 44.5997 5.70918Z" fill="#FFBB00"/>
<path d="M29.2559 5.70918C29.2417 5.66575 29.2155 5.62719 29.1804 5.5979C29.1453 5.5686 29.1027 5.54975 29.0575 5.54348L24.6489 4.89852L22.6763 0.901744C22.6563 0.860909 22.6252 0.826506 22.5867 0.802444C22.5481 0.778383 22.5035 0.765627 22.458 0.765627C22.4126 0.765627 22.368 0.778383 22.3294 0.802444C22.2908 0.826506 22.2597 0.860909 22.2397 0.901744L20.2671 4.89852L15.8566 5.53951C15.8117 5.54619 15.7695 5.56528 15.7348 5.59462C15.7002 5.62396 15.6744 5.66239 15.6604 5.70559C15.6463 5.74878 15.6446 5.79504 15.6555 5.83915C15.6663 5.88326 15.6892 5.92347 15.7217 5.95526L18.9127 9.06595L18.1586 13.4586C18.1513 13.5036 18.1567 13.5498 18.1742 13.5919C18.1917 13.634 18.2207 13.6703 18.2578 13.6968C18.2946 13.7238 18.3382 13.7399 18.3836 13.7432C18.4291 13.7466 18.4746 13.737 18.5148 13.7156L22.46 11.6418L26.4052 13.7156C26.4455 13.7368 26.4909 13.7463 26.5363 13.743C26.5817 13.7398 26.6253 13.7239 26.6621 13.6972C26.699 13.6704 26.7276 13.6339 26.7448 13.5918C26.762 13.5496 26.7671 13.5035 26.7594 13.4586L26.0063 9.06595L29.1984 5.95427C29.2293 5.9225 29.251 5.8829 29.2612 5.83972C29.2713 5.79654 29.2695 5.75141 29.2559 5.70918Z" fill="#FFBB00"/>
<path d="M59.9473 5.70918C59.9331 5.66575 59.9069 5.62719 59.8718 5.5979C59.8368 5.5686 59.7941 5.54975 59.7489 5.54348L55.3403 4.89852L53.3677 0.901744C53.3477 0.860909 53.3167 0.826506 53.2781 0.802444C53.2395 0.778383 53.1949 0.765627 53.1494 0.765627C53.104 0.765627 53.0594 0.778383 53.0208 0.802444C52.9822 0.826506 52.9512 0.860909 52.9311 0.901744L50.9586 4.89852L46.548 5.53951C46.5031 5.54619 46.4609 5.56528 46.4263 5.59462C46.3916 5.62396 46.3658 5.66239 46.3518 5.70559C46.3377 5.74878 46.3361 5.79504 46.3469 5.83915C46.3577 5.88326 46.3806 5.92347 46.4131 5.95526L49.6041 9.06595L48.85 13.4586C48.8427 13.5036 48.8481 13.5498 48.8656 13.5919C48.8831 13.634 48.9121 13.6703 48.9493 13.6968C48.986 13.7238 49.0296 13.7399 49.075 13.7432C49.1205 13.7466 49.166 13.737 49.2062 13.7156L53.1514 11.6418L57.0966 13.7156C57.1369 13.7368 57.1823 13.7463 57.2277 13.743C57.2731 13.7398 57.3167 13.7239 57.3535 13.6972C57.3904 13.6704 57.419 13.6339 57.4362 13.5918C57.4534 13.5496 57.4585 13.5035 57.4508 13.4586L56.6977 9.06595L59.8898 5.95427C59.9207 5.9225 59.9424 5.8829 59.9526 5.83972C59.9627 5.79654 59.9609 5.75141 59.9473 5.70918Z" fill="#FFBB00"/>
<path d="M75.2911 5.70918C75.2768 5.66575 75.2507 5.62719 75.2156 5.5979C75.1805 5.5686 75.1379 5.54975 75.0926 5.54348L70.6841 4.89852L68.7115 0.901744C68.6915 0.860909 68.6604 0.826506 68.6218 0.802444C68.5832 0.778383 68.5387 0.765627 68.4932 0.765627C68.4477 0.765627 68.4031 0.778383 68.3646 0.802444C68.326 0.826506 68.2949 0.860909 68.2749 0.901744L66.3023 4.89852L61.8918 5.53951C61.8468 5.54619 61.8047 5.56528 61.77 5.59462C61.7353 5.62396 61.7095 5.66239 61.6955 5.70559C61.6815 5.74878 61.6798 5.79504 61.6906 5.83915C61.7015 5.88326 61.7244 5.92347 61.7568 5.95526L64.9479 9.06595L64.1938 13.4586C64.1864 13.5036 64.1918 13.5498 64.2094 13.5919C64.2269 13.634 64.2559 13.6703 64.293 13.6968C64.3297 13.7238 64.3733 13.7399 64.4188 13.7432C64.4642 13.7466 64.5097 13.737 64.55 13.7156L68.4952 11.6418L72.4403 13.7156C72.4806 13.7368 72.526 13.7463 72.5715 13.743C72.6169 13.7398 72.6604 13.7239 72.6973 13.6972C72.7341 13.6704 72.7628 13.6339 72.78 13.5918C72.7972 13.5496 72.8022 13.5035 72.7946 13.4586L72.0415 9.06595L75.2335 5.95427C75.2645 5.9225 75.2862 5.8829 75.2963 5.83972C75.3065 5.79654 75.3047 5.75141 75.2911 5.70918Z" fill="#FFBB00"/>
</g>
</g>
</g>
<path d="M4.18778 29.8943C3.67645 29.8943 3.19545 29.8033 2.74478 29.6213C2.29411 29.4306 1.90411 29.1663 1.57478 28.8283C1.24545 28.4903 1.01145 28.0829 0.872781 27.6063L2.15978 27.1123C2.32445 27.5716 2.59311 27.9226 2.96578 28.1653C3.33845 28.4079 3.74578 28.5293 4.18778 28.5293C4.55178 28.5293 4.87245 28.4469 5.14978 28.2823C5.42711 28.1176 5.64378 27.8923 5.79978 27.6063C5.96445 27.3203 6.04678 26.9953 6.04678 26.6313C6.04678 26.2586 5.96445 25.9336 5.79978 25.6563C5.64378 25.3703 5.42711 25.1493 5.14978 24.9933C4.87245 24.8286 4.55178 24.7463 4.18778 24.7463C3.82378 24.7463 3.49011 24.8286 3.18678 24.9933C2.88345 25.1579 2.66245 25.3789 2.52378 25.6563L1.28878 25.3833L2.04278 20.0533H7.20378V21.3533H2.64078L3.22578 20.7163L2.66678 24.7983L2.18578 24.4733C2.44578 24.1093 2.76211 23.8449 3.13478 23.6803C3.50745 23.5156 3.93211 23.4333 4.40878 23.4333C5.04145 23.4333 5.59178 23.5763 6.05978 23.8623C6.53645 24.1396 6.90478 24.5209 7.16478 25.0063C7.43345 25.4829 7.56778 26.0246 7.56778 26.6313C7.56778 27.2466 7.42045 27.8013 7.12578 28.2953C6.83111 28.7893 6.42811 29.1793 5.91678 29.4653C5.41411 29.7513 4.83778 29.8943 4.18778 29.8943ZM8.80683 29.7383V28.0483H10.3018V29.7383H8.80683ZM15.4727 29.8943C14.7013 29.8943 14.0253 29.6863 13.4447 29.2703C12.864 28.8456 12.409 28.2606 12.0797 27.5153C11.759 26.7613 11.5987 25.8859 11.5987 24.8893C11.5987 23.8839 11.759 23.0086 12.0797 22.2633C12.409 21.5179 12.8597 20.9373 13.4317 20.5213C14.0123 20.1053 14.6883 19.8973 15.4597 19.8973C16.231 19.8973 16.9027 20.1053 17.4747 20.5213C18.0553 20.9373 18.506 21.5223 18.8267 22.2763C19.156 23.0216 19.3207 23.8926 19.3207 24.8893C19.3207 25.8859 19.1603 26.7613 18.8397 27.5153C18.519 28.2606 18.0683 28.8456 17.4877 29.2703C16.9157 29.6863 16.244 29.8943 15.4727 29.8943ZM15.4727 28.4903C15.9493 28.4903 16.361 28.3429 16.7077 28.0483C17.0543 27.7536 17.323 27.3376 17.5137 26.8003C17.7043 26.2629 17.7997 25.6259 17.7997 24.8893C17.7997 24.1526 17.7043 23.5156 17.5137 22.9783C17.323 22.4409 17.0543 22.0249 16.7077 21.7303C16.361 21.4356 15.945 21.2883 15.4597 21.2883C14.983 21.2883 14.5713 21.4356 14.2247 21.7303C13.878 22.0249 13.6093 22.4409 13.4187 22.9783C13.228 23.5156 13.1327 24.1526 13.1327 24.8893C13.1327 25.6173 13.228 26.2543 13.4187 26.8003C13.6093 27.3376 13.878 27.7536 14.2247 28.0483C14.58 28.3429 14.996 28.4903 15.4727 28.4903Z" fill="#333333"/>
<path d="M26.2246 31.6883C25.5226 30.8823 24.9896 29.9896 24.6256 29.0103C24.2616 28.0223 24.0796 26.9736 24.0796 25.8643C24.0796 24.7463 24.2616 23.6976 24.6256 22.7183C24.9896 21.7389 25.5226 20.8506 26.2246 20.0533H27.2646C26.6406 20.9373 26.1683 21.8733 25.8476 22.8613C25.527 23.8406 25.3666 24.8416 25.3666 25.8643C25.3666 26.8869 25.527 27.8923 25.8476 28.8803C26.1683 29.8596 26.6406 30.7956 27.2646 31.6883H26.2246ZM31.4148 29.8943C30.9034 29.8943 30.4268 29.8033 29.9848 29.6213C29.5428 29.4393 29.1614 29.1836 28.8408 28.8543C28.5201 28.5163 28.2818 28.1176 28.1258 27.6583L29.2048 27.2163C29.3868 27.7016 29.6728 28.0786 30.0628 28.3473C30.4528 28.6159 30.9034 28.7503 31.4148 28.7503C31.8134 28.7503 32.1688 28.6723 32.4808 28.5163C32.7928 28.3603 33.0354 28.1349 33.2088 27.8403C33.3908 27.5456 33.4818 27.1903 33.4818 26.7743C33.4818 26.3496 33.3908 25.9943 33.2088 25.7083C33.0354 25.4136 32.7928 25.1883 32.4808 25.0323C32.1688 24.8763 31.8091 24.7983 31.4018 24.7983C31.2718 24.7983 31.1288 24.8069 30.9728 24.8243C30.8254 24.8416 30.6998 24.8676 30.5958 24.9023L30.3228 24.3173L32.9098 21.1583H28.6198V20.0533H34.3528V21.1193L31.8828 24.1613L31.8048 23.8233C32.3854 23.8406 32.8968 23.9749 33.3388 24.2263C33.7808 24.4776 34.1274 24.8199 34.3788 25.2533C34.6301 25.6779 34.7558 26.1763 34.7558 26.7483C34.7558 27.3376 34.6128 27.8706 34.3268 28.3473C34.0408 28.8239 33.6464 29.2009 33.1438 29.4783C32.6411 29.7556 32.0648 29.8943 31.4148 29.8943ZM37.1913 29.7383L40.5323 25.3833L40.7663 25.4093C40.6363 25.5826 40.4933 25.7213 40.3373 25.8253C40.1813 25.9206 40.008 25.9899 39.8173 26.0333C39.6353 26.0766 39.436 26.0983 39.2193 26.0983C38.6473 26.0983 38.1317 25.9683 37.6723 25.7083C37.2217 25.4396 36.862 25.0756 36.5933 24.6163C36.3333 24.1483 36.2033 23.6153 36.2033 23.0173C36.2033 22.4193 36.342 21.8863 36.6193 21.4183C36.8967 20.9503 37.278 20.5819 37.7633 20.3133C38.2487 20.0359 38.7947 19.8973 39.4013 19.8973C40.0253 19.8973 40.5757 20.0359 41.0523 20.3133C41.5377 20.5819 41.919 20.9589 42.1963 21.4443C42.4737 21.9209 42.6123 22.4713 42.6123 23.0953C42.6123 23.4333 42.5733 23.7669 42.4953 24.0963C42.4173 24.4256 42.2917 24.7593 42.1183 25.0973C41.9537 25.4353 41.7327 25.7863 41.4553 26.1503L38.7253 29.7383H37.1913ZM39.4013 24.9803C39.774 24.9803 40.1033 24.8979 40.3893 24.7333C40.684 24.5599 40.9137 24.3259 41.0783 24.0313C41.243 23.7279 41.3253 23.3899 41.3253 23.0173C41.3253 22.6273 41.2387 22.2849 41.0653 21.9903C40.9007 21.6956 40.6753 21.4616 40.3893 21.2883C40.1033 21.1149 39.774 21.0283 39.4013 21.0283C39.0373 21.0283 38.7123 21.1149 38.4263 21.2883C38.1403 21.4616 37.9107 21.6956 37.7373 21.9903C37.5727 22.2849 37.4903 22.6273 37.4903 23.0173C37.4903 23.3899 37.5727 23.7279 37.7373 24.0313C37.902 24.3259 38.1273 24.5599 38.4133 24.7333C38.708 24.8979 39.0373 24.9803 39.4013 24.9803ZM46.9687 29.8943C46.3447 29.8943 45.79 29.7556 45.3047 29.4783C44.828 29.2009 44.451 28.8239 44.1737 28.3473C43.8963 27.8619 43.7577 27.3116 43.7577 26.6963C43.7577 26.3583 43.7967 26.0246 43.8747 25.6953C43.9527 25.3659 44.0783 25.0323 44.2517 24.6943C44.425 24.3563 44.646 24.0053 44.9147 23.6413L47.6447 20.0533H49.1787L45.8377 24.3953L45.6037 24.3693C45.7337 24.1959 45.8767 24.0616 46.0327 23.9663C46.1973 23.8709 46.3707 23.8016 46.5527 23.7583C46.7433 23.7149 46.9427 23.6933 47.1507 23.6933C47.7227 23.6933 48.234 23.8276 48.6847 24.0963C49.144 24.3563 49.5037 24.7159 49.7637 25.1753C50.0323 25.6346 50.1667 26.1633 50.1667 26.7613C50.1667 27.3593 50.028 27.8966 49.7507 28.3733C49.4733 28.8413 49.092 29.2139 48.6067 29.4913C48.13 29.7599 47.584 29.8943 46.9687 29.8943ZM46.9687 28.7503C47.3327 28.7503 47.6577 28.6679 47.9437 28.5033C48.2297 28.3299 48.455 28.0916 48.6197 27.7883C48.793 27.4849 48.8797 27.1469 48.8797 26.7743C48.8797 26.3843 48.7973 26.0463 48.6327 25.7603C48.468 25.4656 48.2427 25.2316 47.9567 25.0583C47.6707 24.8849 47.3413 24.7983 46.9687 24.7983C46.6047 24.7983 46.2753 24.8849 45.9807 25.0583C45.686 25.2316 45.4563 25.4656 45.2917 25.7603C45.127 26.0463 45.0447 26.3843 45.0447 26.7743C45.0447 27.1469 45.127 27.4849 45.2917 27.7883C45.465 28.0916 45.6947 28.3299 45.9807 28.5033C46.2753 28.6679 46.6047 28.7503 46.9687 28.7503ZM54.021 29.7383V22.7313H55.204V24.0183L55.074 23.8363C55.2386 23.4376 55.49 23.1429 55.828 22.9523C56.166 22.7529 56.5776 22.6533 57.063 22.6533H57.492V23.7973H56.881C56.387 23.7973 55.9883 23.9533 55.685 24.2653C55.3816 24.5686 55.23 25.0019 55.23 25.5653V29.7383H54.021ZM61.7899 29.8943C61.1139 29.8943 60.5115 29.7339 59.9829 29.4133C59.4542 29.0926 59.0382 28.6549 58.7349 28.1003C58.4315 27.5369 58.2799 26.9086 58.2799 26.2153C58.2799 25.5133 58.4272 24.8893 58.7219 24.3433C59.0252 23.7973 59.4325 23.3683 59.9439 23.0563C60.4639 22.7356 61.0445 22.5753 61.6859 22.5753C62.2059 22.5753 62.6652 22.6706 63.0639 22.8613C63.4712 23.0433 63.8135 23.2946 64.0909 23.6153C64.3769 23.9273 64.5935 24.2869 64.7409 24.6943C64.8969 25.0929 64.9749 25.5089 64.9749 25.9423C64.9749 26.0376 64.9662 26.1459 64.9489 26.2673C64.9402 26.3799 64.9272 26.4883 64.9099 26.5923H59.1639V25.5523H64.2079L63.6359 26.0203C63.7139 25.5696 63.6705 25.1666 63.5059 24.8113C63.3412 24.4559 63.0985 24.1743 62.7779 23.9663C62.4572 23.7583 62.0932 23.6543 61.6859 23.6543C61.2785 23.6543 60.9059 23.7583 60.5679 23.9663C60.2299 24.1743 59.9655 24.4733 59.7749 24.8633C59.5929 25.2446 59.5192 25.6996 59.5539 26.2283C59.5192 26.7396 59.5972 27.1903 59.7879 27.5803C59.9872 27.9616 60.2645 28.2606 60.6199 28.4773C60.9839 28.6853 61.3782 28.7893 61.8029 28.7893C62.2709 28.7893 62.6652 28.6809 62.9859 28.4643C63.3065 28.2476 63.5665 27.9703 63.7659 27.6323L64.7799 28.1523C64.6412 28.4729 64.4245 28.7676 64.1299 29.0363C63.8439 29.2963 63.5015 29.5043 63.1029 29.6603C62.7129 29.8163 62.2752 29.8943 61.7899 29.8943ZM68.3743 29.7383L65.6313 22.7313H66.9833L69.1803 28.6593H68.7123L70.9223 22.7313H72.2743L69.5183 29.7383H68.3743ZM73.3559 29.7383V22.7313H74.5649V29.7383H73.3559ZM73.3559 21.6133V20.0533H74.5649V21.6133H73.3559ZM79.6649 29.8943C78.9889 29.8943 78.3865 29.7339 77.8579 29.4133C77.3292 29.0926 76.9132 28.6549 76.6099 28.1003C76.3065 27.5369 76.1549 26.9086 76.1549 26.2153C76.1549 25.5133 76.3022 24.8893 76.5969 24.3433C76.9002 23.7973 77.3075 23.3683 77.8189 23.0563C78.3389 22.7356 78.9195 22.5753 79.5609 22.5753C80.0809 22.5753 80.5402 22.6706 80.9389 22.8613C81.3462 23.0433 81.6885 23.2946 81.9659 23.6153C82.2519 23.9273 82.4685 24.2869 82.6159 24.6943C82.7719 25.0929 82.8499 25.5089 82.8499 25.9423C82.8499 26.0376 82.8412 26.1459 82.8239 26.2673C82.8152 26.3799 82.8022 26.4883 82.7849 26.5923H77.0389V25.5523H82.0829L81.5109 26.0203C81.5889 25.5696 81.5455 25.1666 81.3809 24.8113C81.2162 24.4559 80.9735 24.1743 80.6529 23.9663C80.3322 23.7583 79.9682 23.6543 79.5609 23.6543C79.1535 23.6543 78.7809 23.7583 78.4429 23.9663C78.1049 24.1743 77.8405 24.4733 77.6499 24.8633C77.4679 25.2446 77.3942 25.6996 77.4289 26.2283C77.3942 26.7396 77.4722 27.1903 77.6629 27.5803C77.8622 27.9616 78.1395 28.2606 78.4949 28.4773C78.8589 28.6853 79.2532 28.7893 79.6779 28.7893C80.1459 28.7893 80.5402 28.6809 80.8609 28.4643C81.1815 28.2476 81.4415 27.9703 81.6409 27.6323L82.6549 28.1523C82.5162 28.4729 82.2995 28.7676 82.0049 29.0363C81.7189 29.2963 81.3765 29.5043 80.9779 29.6603C80.5879 29.8163 80.1502 29.8943 79.6649 29.8943ZM86.0382 29.7383L83.6332 22.7313H84.9722L86.8832 28.5943L86.4152 28.5813L88.2872 22.7313H89.4312L91.3032 28.5813L90.8352 28.5943L92.7592 22.7313H94.0852L91.6802 29.7383H90.5232L88.6772 23.8883H89.0412L87.1952 29.7383H86.0382ZM97.6755 29.8943C96.9735 29.8943 96.3625 29.7209 95.8425 29.3743C95.3225 29.0276 94.9541 28.5596 94.7375 27.9703L95.6995 27.5023C95.8988 27.9183 96.1718 28.2476 96.5185 28.4903C96.8651 28.7329 97.2508 28.8543 97.6755 28.8543C98.0568 28.8543 98.3731 28.7633 98.6245 28.5813C98.8758 28.3993 99.0015 28.1609 99.0015 27.8663C99.0015 27.6583 98.9408 27.4936 98.8195 27.3723C98.7068 27.2423 98.5681 27.1426 98.4035 27.0733C98.2388 26.9953 98.0871 26.9389 97.9485 26.9043L96.8955 26.6053C96.2628 26.4233 95.7991 26.1633 95.5045 25.8253C95.2185 25.4873 95.0755 25.0929 95.0755 24.6423C95.0755 24.2263 95.1795 23.8666 95.3875 23.5633C95.6041 23.2513 95.8945 23.0086 96.2585 22.8353C96.6311 22.6619 97.0471 22.5753 97.5065 22.5753C98.1218 22.5753 98.6721 22.7313 99.1575 23.0433C99.6515 23.3553 100.002 23.7929 100.21 24.3563L99.2225 24.8113C99.0665 24.4473 98.8325 24.1613 98.5205 23.9533C98.2085 23.7366 97.8575 23.6283 97.4675 23.6283C97.1121 23.6283 96.8305 23.7193 96.6225 23.9013C96.4145 24.0746 96.3105 24.2956 96.3105 24.5643C96.3105 24.7636 96.3625 24.9283 96.4665 25.0583C96.5705 25.1796 96.6961 25.2749 96.8435 25.3443C96.9908 25.4049 97.1338 25.4569 97.2725 25.5003L98.4165 25.8383C98.9885 26.0029 99.4305 26.2586 99.7425 26.6053C100.063 26.9519 100.223 27.3679 100.223 27.8533C100.223 28.2433 100.115 28.5943 99.8985 28.9063C99.6818 29.2183 99.3828 29.4609 99.0015 29.6343C98.6201 29.8076 98.1781 29.8943 97.6755 29.8943ZM101.208 31.6883C101.823 30.7956 102.291 29.8596 102.612 28.8803C102.933 27.8923 103.093 26.8869 103.093 25.8643C103.093 24.8416 102.933 23.8406 102.612 22.8613C102.291 21.8733 101.823 20.9373 101.208 20.0533H102.248C102.95 20.8506 103.479 21.7389 103.834 22.7183C104.198 23.6976 104.38 24.7463 104.38 25.8643C104.38 26.9736 104.198 28.0223 103.834 29.0103C103.479 29.9896 102.95 30.8823 102.248 31.6883H101.208Z" fill="#888888"/>
<defs>
<clipPath id="clip0_6408_1837">
<rect width="75" height="14" fill="white" transform="translate(0.300781 0.257812)"/>
</clipPath>
<clipPath id="clip1_6408_1837">
<rect width="75" height="14" fill="white" transform="translate(0.300781 0.257812)"/>
</clipPath>
<clipPath id="clip2_6408_1837">
<rect width="75" height="12.9786" fill="white" transform="translate(0.300781 0.765625)"/>
</clipPath>
</defs>
</svg>
