<svg width="22" height="23" viewBox="0 0 22 23" fill="none" xmlns="http://www.w3.org/2000/svg">
<path d="M9.39525 0.704954C9.13729 0.801144 9.09793 0.823004 8.82686 1.07222C8.48145 1.39577 8.28907 1.78926 8.206 2.33579C8.14916 2.72492 8.00925 3.03972 7.79064 3.28019C7.41463 3.69993 5.88435 4.56563 5.28536 4.70116C4.92246 4.78424 4.80879 4.77112 4.25352 4.59623C4.03928 4.52628 3.75071 4.45632 3.61954 4.4432C3.06427 4.37762 2.41718 4.60935 2.08489 4.98099C1.88377 5.20834 0.812578 7.02719 0.677039 7.37259C0.567734 7.65241 0.558989 8.15959 0.65955 8.49188C0.760111 8.83291 1.03993 9.23516 1.36348 9.50623C1.70888 9.7948 1.94061 10.0965 2.02806 10.3851C2.18108 10.8835 2.18108 12.7373 2.02806 13.2357C1.94061 13.5243 1.70888 13.826 1.36785 14.1102C1.04868 14.3813 0.812578 14.7092 0.685784 15.0677C0.558989 15.4175 0.554617 15.9378 0.677039 16.2482C0.81695 16.5936 1.88814 18.4124 2.08489 18.6398C2.20294 18.771 2.37783 18.8978 2.56147 18.9896C2.84566 19.1295 2.86752 19.1339 3.40093 19.1339C3.89499 19.1295 3.97369 19.1207 4.23165 19.0114C4.85251 18.7535 5.18917 18.7753 5.91496 19.1339C6.51395 19.4268 7.40151 20.0039 7.68134 20.2838C7.95679 20.5592 8.06609 20.7778 8.17102 21.2675C8.3328 22.0326 8.71755 22.5967 9.25533 22.859L9.50018 22.9814L10.9692 22.9945C12.3815 23.0077 12.4471 23.0033 12.6875 22.9115C13.3259 22.6754 13.75 22.0939 13.9161 21.2282C14.0342 20.5986 14.3096 20.2619 15.1622 19.711C16.5744 18.8016 16.9679 18.6966 17.8555 19.0027C18.3015 19.1557 18.3452 19.1645 18.7649 19.147C19.342 19.1251 19.6525 18.994 19.9848 18.6311C20.2034 18.3862 21.104 16.8822 21.3533 16.3356C21.5631 15.8853 21.5413 15.3563 21.2964 14.836C21.2134 14.6523 21.056 14.46 20.6931 14.1058C20.1553 13.5768 20.0547 13.4019 19.9716 12.8247C19.9192 12.4487 19.9192 11.1721 19.9716 10.796C20.0547 10.2189 20.1553 10.044 20.6931 9.51498C21.3139 8.90724 21.4976 8.54435 21.5019 7.93661C21.5019 7.58246 21.3926 7.30701 20.9467 6.52875C20.0766 5.00722 19.9498 4.84108 19.5126 4.62247C19.0229 4.38199 18.4895 4.37325 17.8074 4.60497C17.3396 4.758 16.9942 4.77549 16.6488 4.66181C16.3034 4.55251 15.359 4.06282 14.8999 3.76551C14.1959 3.29768 14.0079 3.03972 13.8637 2.30082C13.8156 2.06034 13.7194 1.74554 13.6538 1.61C13.4964 1.27334 13.1335 0.91045 12.8143 0.757421L12.5607 0.639372L11.096 0.630627C9.74065 0.621883 9.61386 0.626255 9.39525 0.704954ZM11.7213 7.1977C14.3359 7.5912 16.1197 10.1227 15.5951 12.698C15.3983 13.6642 15.0267 14.3507 14.3096 15.0677C13.5882 15.7891 12.9105 16.1564 11.9224 16.3575C11.3453 16.4799 10.4839 16.4624 9.94615 16.3182C8.54704 15.9509 7.4671 15.0677 6.85499 13.8041C6.2866 12.6236 6.22976 11.3819 6.69759 10.149C7.45835 8.11587 9.57451 6.87416 11.7213 7.1977Z" fill="#F91942"/>
<path d="M10.4174 8.37758C9.28497 8.60056 8.41052 9.26077 7.92521 10.262C7.64976 10.8304 7.5798 11.1583 7.58417 11.8141C7.58417 12.435 7.67599 12.846 7.90335 13.3051C8.55918 14.608 9.77466 15.325 11.2 15.2551C11.7728 15.2289 12.0832 15.1502 12.5598 14.9228C13.4167 14.5162 14.0725 13.7423 14.3742 12.7979C14.5098 12.365 14.5404 11.6043 14.4442 11.1102C14.1819 9.82041 13.1937 8.77108 11.9389 8.44316C11.4973 8.32949 10.8152 8.29888 10.4174 8.37758Z" fill="#F91942"/>
</svg>
