<svg width="112" height="112" viewBox="0 0 112 112" fill="none" xmlns="http://www.w3.org/2000/svg">
<circle cx="56.0039" cy="56.1289" r="55.2695" fill="url(#paint0_linear_7377_110)"/>
<path d="M35.3315 51.4483C36.6381 51.427 37.6793 52.0037 38.5776 52.965C41.3745 55.9128 44.2123 58.8392 46.9888 61.8084C47.6421 62.5133 48.0096 62.4919 48.6833 61.8084C56.87 53.1999 65.077 44.6342 73.2637 36.0471C74.2641 34.9791 75.3869 34.2955 76.8569 34.3596C79.2659 34.4451 82.7978 38.2046 82.7978 40.7038C82.7978 42.0923 82.1853 43.203 81.2462 44.1856C76.571 49.0559 71.9163 53.9476 67.2615 58.8392C61.586 64.7775 55.9104 70.7159 50.2349 76.6542C48.6425 78.3204 47.0705 78.3204 45.4576 76.6328C40.5579 71.5062 35.6377 66.3796 30.7584 61.2103C28.6147 58.946 28.7168 56.5536 30.8809 54.3107C31.4321 53.734 31.9833 53.1359 32.5549 52.5805C33.3307 51.8328 34.2699 51.427 35.3315 51.4483Z" fill="white"/>
<defs>
<linearGradient id="paint0_linear_7377_110" x1="56.0039" y1="0.859375" x2="56.0039" y2="111.398" gradientUnits="userSpaceOnUse">
<stop stop-color="#FF295D"/>
<stop offset="0.485577" stop-color="#E31B95"/>
<stop offset="1" stop-color="#C817AE"/>
</linearGradient>
</defs>
</svg>
