<svg width="29" height="30" viewBox="0 0 29 30" fill="none" xmlns="http://www.w3.org/2000/svg">
<path d="M9.38518 0.557918C5.50085 0.700263 3.62589 1.24931 2.25496 2.6321C1.48212 3.40483 0.971381 4.41481 0.648807 5.79081C0.494241 6.45509 0.373276 7.26172 0.427038 7.26172C0.440479 7.26172 0.642087 7.07192 0.884017 6.84146C2.35576 5.42478 3.88799 4.67916 5.93095 4.38091C8.02768 4.06911 21.018 4.06911 23.108 4.38091C25.1779 4.67916 26.7504 5.4519 28.1684 6.84824C28.4036 7.0787 28.6052 7.24816 28.6254 7.23461C28.6724 7.18038 28.5178 6.24496 28.3565 5.60102C27.9399 3.91999 27.1469 2.72022 25.9036 1.90681C24.5999 1.04596 22.8594 0.679928 19.4118 0.551139C17.4831 0.476577 11.3945 0.483356 9.38518 0.557918Z" fill="black" fill-opacity="0.28"/>
<path d="M6.84627 6.389C5.61646 6.49068 4.74282 6.72114 3.92294 7.16174C2.40416 7.96836 1.03994 9.59517 0.589681 11.1271C0.233506 12.3404 0.119261 14.4959 0.166303 18.99C0.206625 22.3792 0.260387 23.2265 0.482157 24.2025C0.865213 25.8158 1.9203 27.3003 3.39204 28.2763C4.33288 28.8999 5.12587 29.1711 6.66482 29.3677C7.4847 29.4761 19.0369 29.5303 20.979 29.4354C23.3379 29.3202 24.2989 29.1101 25.3472 28.4797C27.1684 27.3884 28.3243 25.7209 28.6738 23.7077C28.8216 22.813 28.909 20.7591 28.909 17.8377C28.9023 13.974 28.788 12.2252 28.4654 11.1271C28.2168 10.273 27.6523 9.33081 26.9332 8.56486C25.7975 7.35831 24.6147 6.74148 22.8473 6.44323C22.2626 6.34155 7.93495 6.29411 6.84627 6.389ZM15.1257 12.7132C15.2601 12.8081 16.1942 13.7232 17.1955 14.7399C18.721 16.2854 19.0301 16.6311 19.0974 16.8684C19.2116 17.2479 19.1108 17.5936 18.8017 17.8987C18.553 18.1427 18.1431 18.2376 17.7735 18.1427C17.6592 18.1156 17.209 17.7224 16.5974 17.1124L15.6095 16.1227L15.5894 19.3086L15.5692 22.4876L15.3878 22.7655C14.9509 23.4366 13.9832 23.4027 13.6002 22.6977C13.4994 22.5012 13.4859 22.169 13.4658 19.3018L13.4456 16.1227L12.4577 17.1124C11.8462 17.7224 11.3959 18.1156 11.2817 18.1427C10.4618 18.3528 9.72927 17.6411 9.95104 16.8684C10.025 16.6311 10.3408 16.2786 11.9604 14.6383C13.0961 13.4927 13.9832 12.6454 14.1243 12.5844C14.4335 12.4489 14.8098 12.4963 15.1257 12.7132Z" fill="black" fill-opacity="0.28"/>
</svg>
